<svg width="392" height="370" viewBox="0 0 392 370" fill="none" xmlns="http://www.w3.org/2000/svg">
<path fill-rule="evenodd" clip-rule="evenodd" d="M173.592 155.22L153.341 189.977H174.094L202.545 136.141C204.219 123.589 200.871 95.506 174.094 83.5898C179.114 86.4908 183.075 90.4516 185.976 95.4725C186.918 97.0415 187.712 98.665 188.359 100.343C188.293 100.172 188.226 100.002 188.157 99.8324C198.813 124.218 183.271 146.659 173.592 155.22Z" fill="#75B2F7"/>
<path d="M164.219 159.906C167.454 159.014 170.579 157.452 173.591 155.22C183.271 146.659 198.812 124.217 188.157 99.8322C189.715 103.669 190.495 107.794 190.495 112.208C190.495 118.345 188.988 123.924 185.976 128.944C183.075 133.965 179.114 137.982 174.093 140.994C169.072 143.895 163.494 145.346 157.357 145.346C151.22 145.346 145.642 143.895 140.621 140.994C135.6 137.982 131.583 133.965 128.571 128.944C125.67 123.924 124.22 118.345 124.22 112.208C124.22 106.072 125.67 100.493 128.571 95.4722C131.583 90.4514 135.6 86.4905 140.621 83.5896C145.642 80.5771 151.22 79.0708 157.357 79.0708C163.494 79.0708 169.072 80.5771 174.093 83.5896C200.871 95.5057 204.218 123.589 202.545 136.141C204.441 132.459 205.892 128.61 206.896 124.593C208.012 120.576 208.57 116.392 208.57 112.041C208.57 102.557 206.226 94.0775 201.54 86.6021C196.966 79.015 190.829 73.0458 183.131 68.6944C175.432 64.2315 166.841 62 157.357 62C147.985 62 139.394 64.2315 131.583 68.6944C123.885 73.0458 117.692 79.015 113.006 86.6021C108.432 94.0775 106.145 102.557 106.145 112.041C106.145 121.413 108.376 129.781 112.839 137.145C117.302 144.509 123.16 150.367 130.412 154.718C137.776 158.958 145.809 161.078 154.512 161.078C157.748 161.078 160.983 160.687 164.219 159.906Z" fill="#0668B6"/>
<path fill-rule="evenodd" clip-rule="evenodd" d="M102.254 141.468C98.0526 130.435 96.1924 118.657 96.7909 106.88C97.3894 95.1038 100.434 83.5847 105.731 73.0522C105.731 73.0522 64.4534 109.476 102.254 141.468Z" fill="#75B2F7"/>
<path d="M80.6352 100.481C70.5977 63.6055 93.9568 46.7761 124.802 42.6263C155.647 38.4766 155.647 18.9786 155.647 18.9786C155.647 18.9786 162.147 48.9793 124.802 58.4784C87.457 67.9775 80.6352 100.481 80.6352 100.481Z" fill="#0668B6"/>
<path fill-rule="evenodd" clip-rule="evenodd" d="M150.222 22.0439C143.129 28.3415 136.782 26.1007 128.165 22.5082C119.549 18.9157 116.395 24.5167 116.797 28.729C117.198 32.9413 123.766 35.7008 131.549 34.8716C137.33 34.2559 146.243 31.0407 150.222 22.0439Z" fill="#10112D"/>
<path fill-rule="evenodd" clip-rule="evenodd" d="M210.357 203.255C209.938 202.877 209.526 202.492 209.12 202.099L209.1 202.141C209.512 202.519 209.931 202.89 210.357 203.255ZM216.858 144.519C220.959 132.086 235.701 109.115 261.878 116.679C265.415 117.746 268.818 119.216 272.087 121.091C279.674 125.442 285.754 131.412 290.329 138.999C292.044 141.802 293.438 144.754 294.51 147.855C293.438 144.753 292.044 141.801 290.329 138.998C285.754 131.411 279.673 125.441 272.086 121.09C264.499 116.739 256.187 114.563 247.149 114.563C244.918 114.563 242.575 114.786 240.12 115.232C237.777 115.567 235.49 116.236 233.258 117.241V100.204H284.806V83.1328H216.857V144.52C216.857 144.52 216.858 144.519 216.858 144.519Z" fill="#75B2F7"/>
<path d="M218.531 208.955C226.564 213.418 235.379 215.65 244.974 215.65C254.458 215.65 263.105 213.418 270.915 208.955C278.837 204.381 285.196 198.244 289.994 190.546C294.792 182.847 297.191 174.2 297.191 164.605C297.191 155.009 294.903 146.474 290.329 138.999C285.754 131.412 279.674 125.442 272.087 121.091C268.818 119.216 265.415 117.746 261.878 116.679C235.7 109.114 220.957 132.089 216.857 144.521C219.981 140.282 223.942 136.934 228.74 134.48C233.649 131.914 238.893 130.63 244.472 130.63C250.943 130.63 256.745 132.193 261.878 135.317C267.121 138.329 271.306 142.402 274.43 147.534C277.554 152.666 279.116 158.357 279.116 164.605C279.116 170.853 277.554 176.543 274.43 181.676C271.417 186.808 267.289 190.936 262.045 194.06C256.912 197.073 251.222 198.579 244.974 198.579C236.271 198.579 228.684 195.734 222.213 190.044C220.504 188.514 218.98 186.88 217.641 185.142C214.895 181.353 213.006 177.064 212.109 172.475H194.33C195.607 182.706 200.027 192.288 206.981 199.898C208.061 201.08 209.193 202.204 210.373 203.269C212.86 205.397 215.579 207.292 218.531 208.955Z" fill="#0668B6"/>
<path d="M374.038 369.965V337.102L375.294 338.439H362.025V333.965H391.025V338.439H377.757L378.963 337.102V369.965H374.038Z" fill="#10112D"/>
<path d="M337.683 349.496H356.108V353.868H337.683V349.496ZM338.144 365.491H359.025V369.965H333.025V333.965H358.309V338.439H338.144V365.491Z" fill="#10112D"/>
<path d="M310.623 369.965V337.102L311.837 338.439H299.025V333.965H327.025V338.439H314.214L315.379 337.102V369.965H310.623Z" fill="#10112D"/>
<path d="M263.025 369.965V333.965H267.934V361.736L288.463 333.965H293.025V369.965H288.166V342.245L267.587 369.965H263.025Z" fill="#10112D"/>
<path d="M242.613 369.965C239.933 369.965 237.455 369.529 235.178 368.658C232.934 367.753 230.975 366.496 229.3 364.887C227.659 363.244 226.37 361.334 225.432 359.155C224.494 356.976 224.025 354.579 224.025 351.965C224.025 349.35 224.494 346.954 225.432 344.775C226.37 342.596 227.676 340.702 229.35 339.093C231.025 337.451 232.984 336.194 235.228 335.322C237.505 334.417 239.984 333.965 242.663 333.965C245.375 333.965 247.87 334.434 250.148 335.373C252.459 336.278 254.418 337.635 256.025 339.445L252.76 342.613C251.42 341.205 249.913 340.166 248.239 339.496C246.564 338.792 244.773 338.44 242.864 338.44C240.888 338.44 239.046 338.775 237.338 339.445C235.663 340.116 234.206 341.054 232.967 342.261C231.728 343.468 230.757 344.909 230.054 346.585C229.384 348.227 229.049 350.021 229.049 351.965C229.049 353.909 229.384 355.719 230.054 357.395C230.757 359.037 231.728 360.462 232.967 361.669C234.206 362.875 235.663 363.814 237.338 364.484C239.046 365.155 240.888 365.49 242.864 365.49C244.773 365.49 246.564 365.155 248.239 364.484C249.913 363.78 251.42 362.708 252.76 361.267L256.025 364.434C254.418 366.244 252.459 367.618 250.148 368.557C247.87 369.496 245.359 369.965 242.613 369.965Z" fill="#10112D"/>
<path d="M191.025 369.965V333.965H204.555C207.594 333.965 210.188 334.462 212.335 335.456C214.483 336.451 216.135 337.891 217.291 339.776C218.447 341.662 219.025 343.908 219.025 346.513C219.025 349.119 218.447 351.365 217.291 353.251C216.135 355.102 214.483 356.542 212.335 357.571C210.188 358.565 207.594 359.062 204.555 359.062H193.751L195.981 356.645V369.965H191.025ZM195.981 357.159L193.751 354.588H204.406C207.578 354.588 209.973 353.885 211.592 352.479C213.244 351.073 214.07 349.085 214.07 346.513C214.07 343.942 213.244 341.953 211.592 340.548C209.973 339.142 207.578 338.439 204.406 338.439H193.751L195.981 335.868V357.159Z" fill="#10112D"/>
<path d="M162.683 349.496H181.108V353.868H162.683V349.496ZM163.143 365.491H184.025V369.965H158.025V333.965H183.309V338.439H163.143V365.491Z" fill="#10112D"/>
<path d="M120.025 369.965V333.965H135.594C139.525 333.965 142.612 334.753 144.853 336.331C147.094 337.908 148.215 340.205 148.215 343.222C148.215 346.171 147.146 348.433 145.008 350.011C142.87 351.553 140.06 352.325 136.577 352.325L137.508 350.782C141.543 350.782 144.629 351.588 146.767 353.199C148.939 354.776 150.025 357.091 150.025 360.142C150.025 363.228 148.887 365.645 146.612 367.393C144.37 369.108 141.025 369.965 136.577 369.965H120.025ZM125.146 365.902H136.474C139.232 365.902 141.301 365.405 142.681 364.411C144.094 363.382 144.801 361.822 144.801 359.731C144.801 357.639 144.094 356.113 142.681 355.153C141.301 354.193 139.232 353.713 136.474 353.713H125.146V365.902ZM125.146 349.805H135.232C137.75 349.805 139.663 349.308 140.974 348.313C142.318 347.319 142.991 345.862 142.991 343.942C142.991 341.988 142.318 340.513 140.974 339.519C139.663 338.525 137.75 338.028 135.232 338.028H125.146V349.805Z" fill="#10112D"/>
<path d="M79.0254 369.965V333.965H83.9345V361.736L104.463 333.965H109.025V369.965H104.166V342.245L83.5874 369.965H79.0254Z" fill="#10112D"/>
<path d="M63.2081 333.965H68.0254V369.965H63.2081V333.965ZM43.8427 369.965H39.0254V333.965H43.8427V369.965ZM63.6417 353.919H43.3609V349.445H63.6417V353.919Z" fill="#10112D"/>
<path d="M4.5344 364.884C6.25212 365.524 7.8377 365.692 9.29116 365.389C10.7446 365.052 12.0494 363.924 13.2056 362.004L14.8903 359.276L15.3858 358.72L28.12 333.965H33.0254L17.6155 363.065C16.4593 365.288 15.105 366.972 13.5524 368.117C12.0329 369.229 10.3812 369.835 8.59746 369.936C6.84671 370.071 5.06293 369.734 3.24611 368.926L4.5344 364.884ZM15.2371 363.217L0.0253906 333.965H5.32719L17.9623 359.175L15.2371 363.217Z" fill="#10112D"/>
<path d="M355.99 307.965V270.865H366.325V292.648L381.642 270.865H391.5V307.965H381.165V286.235L365.901 307.965H355.99ZM373.692 268.639C369.841 268.639 367.067 267.897 365.371 266.413C363.675 264.894 362.827 262.756 362.827 260H369.876C369.912 261.237 370.23 262.155 370.83 262.756C371.431 263.357 372.385 263.657 373.692 263.657C375.035 263.657 376.007 263.357 376.607 262.756C377.243 262.155 377.579 261.237 377.614 260H384.663C384.663 262.756 383.798 264.894 382.066 266.413C380.335 267.897 377.544 268.639 373.692 268.639Z" fill="#0668B6"/>
<path d="M312.514 307.963V270.863H322.849V292.646L338.166 270.863H348.024V307.963H337.689V286.233L322.425 307.963H312.514Z" fill="#0668B6"/>
<path d="M297.328 307.963L286.887 290.314L295.314 285.332L309.147 307.963H297.328ZM273.69 307.963V270.863H284.131V307.963H273.69ZM281.11 293.759V285.279H294.572V293.759H281.11ZM296.321 290.526L286.622 289.466L298.017 270.863H309.041L296.321 290.526Z" fill="#0668B6"/>
<path d="M253.209 308.709C250.276 308.709 247.555 308.25 245.047 307.331C242.573 306.377 240.418 305.034 238.581 303.303C236.779 301.572 235.365 299.54 234.341 297.208C233.316 294.841 232.804 292.244 232.804 289.417C232.804 286.59 233.316 284.011 234.341 281.679C235.365 279.312 236.779 277.262 238.581 275.531C240.418 273.8 242.573 272.475 245.047 271.556C247.555 270.602 250.276 270.125 253.209 270.125C256.636 270.125 259.692 270.726 262.378 271.927C265.098 273.128 267.36 274.86 269.162 277.121L262.484 283.163C261.282 281.75 259.957 280.672 258.509 279.93C257.095 279.188 255.505 278.817 253.739 278.817C252.219 278.817 250.824 279.064 249.552 279.559C248.28 280.054 247.184 280.778 246.266 281.732C245.382 282.651 244.676 283.764 244.146 285.071C243.651 286.378 243.404 287.827 243.404 289.417C243.404 291.007 243.651 292.456 244.146 293.763C244.676 295.07 245.382 296.201 246.266 297.155C247.184 298.074 248.28 298.78 249.552 299.275C250.824 299.77 252.219 300.017 253.739 300.017C255.505 300.017 257.095 299.646 258.509 298.904C259.957 298.162 261.282 297.084 262.484 295.671L269.162 301.713C267.36 303.939 265.098 305.67 262.378 306.907C259.692 308.108 256.636 308.709 253.209 308.709Z" fill="#0668B6"/>
<path d="M216.67 270.863H227.164V307.963H216.67V270.863ZM202.36 307.963H191.866V270.863H202.36V307.963ZM217.412 293.494H201.618V284.802H217.412V293.494Z" fill="#0668B6"/>
<path d="M148.39 307.963V270.863H158.725V292.646L174.042 270.863H183.9V307.963H173.565V286.233L158.301 307.963H148.39Z" fill="#0668B6"/>
<path d="M133.204 307.963L122.763 290.314L131.19 285.332L145.023 307.963H133.204ZM109.566 307.963V270.863H120.007V307.963H109.566ZM116.986 293.759V285.279H130.448V293.759H116.986ZM132.197 290.526L122.498 289.466L133.893 270.863H144.917L132.197 290.526Z" fill="#0668B6"/>
<path d="M70.4941 307.963V270.863H101.499V278.972H80.8291V284.961H90.4221C94.9448 284.961 98.3898 285.915 100.757 287.823C103.16 289.731 104.361 292.487 104.361 296.091C104.361 299.801 103.018 302.716 100.333 304.836C97.6478 306.921 93.8848 307.963 89.0441 307.963H70.4941ZM80.8291 300.437H88.3551C90.0865 300.437 91.4115 300.084 92.3301 299.377C93.2841 298.671 93.7611 297.664 93.7611 296.356C93.7611 293.742 91.9591 292.434 88.3551 292.434H80.8291V300.437Z" fill="#0668B6"/>
<path d="M34.0026 299.642C36.0873 300.243 37.7833 300.437 39.0906 300.225C40.4333 299.978 41.6169 299.095 42.6416 297.575L44.4436 294.925L45.3446 293.918L56.8986 270.863H67.1276L51.7576 299.536C50.2383 302.363 48.4186 304.554 46.2986 306.108C44.2139 307.663 41.9173 308.546 39.4086 308.758C36.8999 308.97 34.2676 308.511 31.5116 307.38L34.0026 299.642ZM45.1856 302.345L28.2256 270.863H39.3026L50.9096 294.925L45.1856 302.345Z" fill="#0668B6"/>
<path d="M0 307.963V270.863H27.189L27.136 279.184H8.003L10.335 276.852V307.963H0Z" fill="#0668B6"/>
</svg>
